<?xml version="1.0" encoding="utf-8"?>
<!-- Generator: Adobe Illustrator 23.0.6, SVG Export Plug-In . SVG Version: 6.00 Build 0)  -->
<svg version="1.1" id="레이어_1" xmlns="http://www.w3.org/2000/svg" xmlns:xlink="http://www.w3.org/1999/xlink" x="0px"
	 y="0px" viewBox="0 0 717 69" style="enable-background:new 0 0 717 69;" xml:space="preserve">
<style type="text/css">
	.st0{fill:#FFFFFF;stroke:#FFFFFF;stroke-miterlimit:10;}
</style>
<title>logo_image</title>
<path class="st0" d="M359.8,19.6v33.2c0,2,1.6,3.6,3.6,3.6h39.7v-6.2H366v-28h37.1V16h-39.7C361.4,16,359.8,17.6,359.8,19.6"/>
<path class="st0" d="M522.4,16h-40.7c-2,0-3.6,1.6-3.6,3.6v33.1c0,2,1.6,3.6,3.6,3.6h40.7c2,0,3.6-1.6,3.6-3.6V19.6
	C526,17.6,524.3,16,522.4,16 M519.8,50.2h-35.5v-28h35.5V50.2z"/>
<path class="st0" d="M546,22.1h37.9V16h-40.5c-2,0-3.6,1.6-3.6,3.6v19.6h39.5v10.9h-39.5v6.2h42.1c2,0,3.6-1.6,3.6-3.6V33.1H546
	V22.1z"/>
<path class="st0" d="M704.4,16h-40.7c-2,0-3.6,1.6-3.6,3.6v36.8h6.2V22.1h35.6v34.2h6.2V19.6C708,17.6,706.4,16,704.4,16"/>
<path class="st0" d="M641,50.2h-35.6V16h-6.2v36.8c0,2,1.6,3.6,3.6,3.6h40.7c2,0,3.6-1.6,3.6-3.6V16H641V50.2z"/>
<polygon class="st0" points="458.5,33.1 422.9,33.1 422.9,15.9 416.7,15.9 416.7,56.4 422.9,56.4 422.9,39.3 458.5,39.3 458.5,56.4 
	464.6,56.4 464.6,15.9 458.5,15.9 "/>
<polygon class="st0" points="116.4,16.4 113.3,16.4 113.3,56.4 146.1,56.4 146.1,53.5 116.4,53.5 "/>
<polygon class="st0" points="160.7,16.4 157.7,16.4 157.7,56.4 190.4,56.4 190.4,53.5 160.7,53.5 "/>
<polygon class="st0" points="204.6,37.9 233.2,37.9 233.2,35.1 204.6,35.1 204.6,19.2 234.3,19.2 234.3,16.4 201.5,16.4 201.5,56.4 
	234.5,56.4 234.5,53.5 204.6,53.5 "/>
<polygon class="st0" points="311,38.1 295.9,16.4 292.2,16.4 309.4,41.2 309.4,56.4 312.5,56.4 312.5,41.1 329.4,16.4 325.8,16.4 
	"/>
<path class="st0" d="M282.8,28.8v-0.1c0-3-1-5.9-3-8.2c-2.4-2.4-5.6-4.1-11.1-4.1H248v40h2.9V41.2h15.7c0,0,2.8,0,3.6-0.1h0.1
	l10.3,15.3h3.5l-10.5-15.8C279.1,39.4,283,34.4,282.8,28.8 M250.9,38.2v-19h17.6c7.3,0,11.3,3.7,11.3,9.6v0.1c0,5.8-4,9.3-11.4,9.3
	L250.9,38.2z"/>
<path class="st0" d="M78.8,16.4l-19.3,40h3.2L68.1,45h24.2l5.5,11.4h3.2l-19.4-40L78.8,16.4z M69.3,42.2l10.8-22.4l10.8,22.4H69.3z"
	/>
<path class="st0" d="M31.7,38.2h13.5v10.5c-2.9,2.5-7.5,4.9-14.7,4.9c-11.9,0-18.5-7-18.5-17.4V36c-0.1-9.4,7.6-17.2,17-17.2
	c0.1,0,0.3,0,0.4,0c6.1,0,12,2.3,15.2,5l2-2.3c-4-3.3-10.5-5.6-17-5.6C18.4,15.7,9.2,24.7,9,36c0,0.1,0,0.1,0,0.2v0.1
	c0,11.3,7.2,20.1,21.5,20.1c5.2,0.2,10.4-1.2,14.8-4v4H48v-21H31.7V38.2z"/>
</svg>
